<svg width="1000" height="1000" viewBox="0 0 1000 1000" fill="none" xmlns="http://www.w3.org/2000/svg">
<g clip-path="url(#clip0_42_2)">
<rect width="1000" height="1000" fill="white"/>
<rect x="596" width="404" height="1000" fill="#151515"/>
<g clip-path="url(#clip1_42_2)">
<rect x="517" y="381" width="80" height="620" rx="8" fill="white"/>
<line x1="512.586" y1="449.586" x2="597.586" y2="364.586" stroke="#151515" stroke-width="4"/>
<line x1="512.586" y1="437.586" x2="597.586" y2="352.586" stroke="#151515" stroke-width="4"/>
<line x1="512.586" y1="424.586" x2="597.586" y2="339.586" stroke="#151515" stroke-width="4"/>
<line x1="508.586" y1="415.586" x2="593.586" y2="330.586" stroke="#151515" stroke-width="4"/>
<line x1="512.586" y1="464.586" x2="597.586" y2="379.586" stroke="#151515" stroke-width="4"/>
<line x1="512.586" y1="479.586" x2="597.586" y2="394.586" stroke="#151515" stroke-width="4"/>
<line x1="512.586" y1="494.586" x2="597.586" y2="409.586" stroke="#151515" stroke-width="4"/>
<line x1="512.586" y1="509.586" x2="597.586" y2="424.586" stroke="#151515" stroke-width="4"/>
<line x1="512.586" y1="524.586" x2="597.586" y2="439.586" stroke="#151515" stroke-width="4"/>
<line x1="512.586" y1="539.586" x2="597.586" y2="454.586" stroke="#151515" stroke-width="4"/>
<line x1="512.586" y1="554.586" x2="597.586" y2="469.586" stroke="#151515" stroke-width="4"/>
<line x1="512.586" y1="569.586" x2="597.586" y2="484.586" stroke="#151515" stroke-width="4"/>
<line x1="512.586" y1="584.586" x2="597.586" y2="499.586" stroke="#151515" stroke-width="4"/>
<line x1="512.586" y1="599.586" x2="597.586" y2="514.586" stroke="#151515" stroke-width="4"/>
<line x1="512.586" y1="614.586" x2="597.586" y2="529.586" stroke="#151515" stroke-width="4"/>
<line x1="512.586" y1="629.586" x2="597.586" y2="544.586" stroke="#151515" stroke-width="4"/>
<line x1="512.586" y1="644.586" x2="597.586" y2="559.586" stroke="#151515" stroke-width="4"/>
<line x1="512.586" y1="659.586" x2="597.586" y2="574.586" stroke="#151515" stroke-width="4"/>
<line x1="512.586" y1="674.586" x2="597.586" y2="589.586" stroke="#151515" stroke-width="4"/>
<line x1="512.586" y1="689.586" x2="597.586" y2="604.586" stroke="#151515" stroke-width="4"/>
<line x1="512.586" y1="704.586" x2="597.586" y2="619.586" stroke="#151515" stroke-width="4"/>
<line x1="512.586" y1="719.586" x2="597.586" y2="634.586" stroke="#151515" stroke-width="4"/>
<line x1="512.586" y1="734.586" x2="597.586" y2="649.586" stroke="#151515" stroke-width="4"/>
<line x1="512.586" y1="749.586" x2="597.586" y2="664.586" stroke="#151515" stroke-width="4"/>
<line x1="512.586" y1="764.586" x2="597.586" y2="679.586" stroke="#151515" stroke-width="4"/>
<line x1="512.586" y1="779.586" x2="597.586" y2="694.586" stroke="#151515" stroke-width="4"/>
<line x1="512.586" y1="794.586" x2="597.586" y2="709.586" stroke="#151515" stroke-width="4"/>
<line x1="512.586" y1="809.586" x2="597.586" y2="724.586" stroke="#151515" stroke-width="4"/>
<line x1="512.586" y1="824.586" x2="597.586" y2="739.586" stroke="#151515" stroke-width="4"/>
<line x1="512.586" y1="839.586" x2="597.586" y2="754.586" stroke="#151515" stroke-width="4"/>
<line x1="512.586" y1="854.586" x2="597.586" y2="769.586" stroke="#151515" stroke-width="4"/>
<line x1="512.586" y1="869.586" x2="597.586" y2="784.586" stroke="#151515" stroke-width="4"/>
<line x1="512.586" y1="884.586" x2="597.586" y2="799.586" stroke="#151515" stroke-width="4"/>
<line x1="512.586" y1="899.586" x2="597.586" y2="814.586" stroke="#151515" stroke-width="4"/>
<line x1="512.586" y1="914.586" x2="597.586" y2="829.586" stroke="#151515" stroke-width="4"/>
<line x1="512.586" y1="929.586" x2="597.586" y2="844.586" stroke="#151515" stroke-width="4"/>
<line x1="512.586" y1="944.586" x2="597.586" y2="859.586" stroke="#151515" stroke-width="4"/>
<line x1="512.586" y1="959.586" x2="597.586" y2="874.586" stroke="#151515" stroke-width="4"/>
<line x1="512.586" y1="974.586" x2="597.586" y2="889.586" stroke="#151515" stroke-width="4"/>
</g>
<rect x="519" y="383" width="76" height="616" rx="6" stroke="#151515" stroke-width="4"/>
<rect x="560" y="267" width="120" height="190" rx="6" fill="white" stroke="#151515" stroke-width="4"/>
<rect x="500" y="362" width="28" height="144" rx="8" fill="#151515"/>
<rect x="643" y="588" width="80" height="340" rx="6" transform="rotate(90 643 588)" fill="white" stroke="#151515" stroke-width="4"/>
<g clip-path="url(#clip2_42_2)">
<rect y="779" width="392" height="222" fill="white"/>
<path d="M2 802.638L24.6385 780" stroke="#151515" stroke-width="4"/>
<path d="M2.31921 888.319L109.319 781.319" stroke="#151515" stroke-width="4"/>
<path d="M-0.361511 981L199.638 781" stroke="#151515" stroke-width="4"/>
<path d="M71.6384 999L289.319 781.319" stroke="#151515" stroke-width="4"/>
<path d="M165.638 1000L384.638 781" stroke="#151515" stroke-width="4"/>
<path d="M258.638 1000L391.638 867" stroke="#151515" stroke-width="4"/>
<path d="M2 821.638L43 780.638" stroke="#151515" stroke-width="4"/>
<path d="M2.5 907.138L130.5 779.138" stroke="#151515" stroke-width="4"/>
<path d="M2 997.638L220 779.638" stroke="#151515" stroke-width="4"/>
<path d="M90 999.638L309.138 780.5" stroke="#151515" stroke-width="4"/>
<path d="M185 999.638L391 793.638" stroke="#151515" stroke-width="4"/>
<path d="M275 1002.64L391 886.638" stroke="#151515" stroke-width="4"/>
<path d="M1 842L62 781" stroke="#151515" stroke-width="4"/>
<path d="M2 927L148 781" stroke="#151515" stroke-width="4"/>
<path d="M20 999L238.5 780.5" stroke="#151515" stroke-width="4"/>
<path d="M110 999L328 781" stroke="#151515" stroke-width="4"/>
<path d="M203 1001L390 814" stroke="#151515" stroke-width="4"/>
<path d="M297 1000L390 907" stroke="#151515" stroke-width="4"/>
<line x1="-1.41421" y1="861.586" x2="79.5858" y2="780.586" stroke="#151515" stroke-width="4"/>
<line x1="2.58579" y1="943.586" x2="166.586" y2="779.586" stroke="#151515" stroke-width="4"/>
<line x1="35.5858" y1="1000.59" x2="256.586" y2="779.586" stroke="#151515" stroke-width="4"/>
<line x1="126.586" y1="999.586" x2="346.586" y2="779.586" stroke="#151515" stroke-width="4"/>
<line x1="219.586" y1="1001.59" x2="390.586" y2="830.586" stroke="#151515" stroke-width="4"/>
<line x1="314.586" y1="999.586" x2="390.586" y2="923.586" stroke="#151515" stroke-width="4"/>
<line x1="0.585786" y1="875.586" x2="96.5858" y2="779.586" stroke="#151515" stroke-width="4"/>
<line x1="-1.41421" y1="963.586" x2="183.586" y2="778.586" stroke="#151515" stroke-width="4"/>
<path d="M52.5 999.671L271.671 780.5" stroke="#151515" stroke-width="4"/>
<path d="M141.672 1000.5L361.086 781.086" stroke="#151515" stroke-width="4"/>
<line x1="236.586" y1="1000.59" x2="391.586" y2="845.586" stroke="#151515" stroke-width="4"/>
<line x1="330.586" y1="999.586" x2="389.586" y2="940.586" stroke="#151515" stroke-width="4"/>
</g>
<rect x="2" y="781" width="388" height="218" stroke="#151515" stroke-width="4"/>
<rect x="998" y="898" width="100" height="636" transform="rotate(90 998 898)" fill="white" stroke="#151515" stroke-width="4"/>
<rect x="344" y="183" width="132" height="210" rx="6" fill="white" stroke="#151515" stroke-width="4"/>
<rect x="361" y="197" width="98" height="214" rx="8" fill="#151515"/>
<rect x="603" y="598" width="28" height="60" rx="8" fill="#151515"/>
<rect x="208" y="156" width="292" height="18" fill="#151515"/>
<rect x="527" y="240" width="70" height="18" fill="#151515"/>
<rect x="597" y="240" width="176" height="18" fill="white"/>
<circle cx="301" cy="589" r="49" fill="#151515"/>
<circle cx="620" cy="319" r="30" fill="white" stroke="#151515" stroke-width="4"/>
<circle cx="620" cy="333" r="32" fill="#151515"/>
<g clip-path="url(#clip3_42_2)">
<rect x="588" y="340" width="64" height="64" rx="32" fill="white"/>
<line x1="588.586" y1="374.586" x2="621.586" y2="341.586" stroke="#151515" stroke-width="4"/>
<line x1="592.586" y1="384.586" x2="632.586" y2="344.586" stroke="#151515" stroke-width="4"/>
<line x1="598.586" y1="393.586" x2="641.586" y2="350.586" stroke="#151515" stroke-width="4"/>
<line x1="608.586" y1="398.586" x2="646.586" y2="360.586" stroke="#151515" stroke-width="4"/>
<line x1="619.586" y1="402.586" x2="650.586" y2="371.586" stroke="#151515" stroke-width="4"/>
</g>
<rect x="590" y="342" width="60" height="60" rx="30" stroke="#151515" stroke-width="4"/>
</g>
<defs>
<clipPath id="clip0_42_2">
<rect width="1000" height="1000" fill="white"/>
</clipPath>
<clipPath id="clip1_42_2">
<rect x="517" y="381" width="80" height="620" rx="8" fill="white"/>
</clipPath>
<clipPath id="clip2_42_2">
<rect y="779" width="392" height="222" fill="white"/>
</clipPath>
<clipPath id="clip3_42_2">
<rect x="588" y="340" width="64" height="64" rx="32" fill="white"/>
</clipPath>
</defs>
</svg>
